<svg width="111" height="45" viewBox="0 0 111 45" fill="none" xmlns="http://www.w3.org/2000/svg">
<path d="M20.5991 5.79885C19.3099 7.31909 17.2471 8.51814 15.1844 8.34685C14.9266 6.29132 15.9364 4.10733 17.1182 2.75839C18.4074 1.19533 20.6636 0.0819237 22.4899 -0.00372314C22.7048 2.13745 21.8668 4.2358 20.5991 5.79885ZM22.4684 8.75367C19.4818 8.58238 16.9248 10.4452 15.5067 10.4452C14.0671 10.4452 11.8969 8.83932 9.53336 8.88214C6.46074 8.92496 3.60299 10.6593 2.03445 13.4214C-1.18858 18.9457 1.19646 27.1249 4.31206 31.6214C5.83762 33.8482 7.66401 36.2891 10.0705 36.2035C12.3481 36.1179 13.2506 34.7261 16.0009 34.7261C18.7727 34.7261 19.5677 36.2035 21.9742 36.1607C24.4667 36.1179 26.0353 33.9339 27.5608 31.707C29.3013 29.1805 30.0103 26.7181 30.0533 26.5896C30.0103 26.5468 25.2402 24.7268 25.1973 19.2454C25.1543 14.6633 28.9575 12.4793 29.1294 12.3508C26.9807 9.18191 23.6287 8.83932 22.4684 8.75367ZM39.7224 2.54427V35.9251H44.9222V24.5127H52.1203C58.6953 24.5127 63.3149 20.0162 63.3149 13.5071C63.3149 6.99791 58.7812 2.54427 52.2922 2.54427H39.7224ZM44.9222 6.91226H50.917C55.4293 6.91226 58.0077 9.31038 58.0077 13.5285C58.0077 17.7466 55.4293 20.1661 50.8956 20.1661H44.9222V6.91226ZM72.8121 36.1821C76.0781 36.1821 79.1078 34.5334 80.4829 31.9212H80.5904V35.9251H85.4034V19.3096C85.4034 14.492 81.5358 11.3873 75.5839 11.3873C70.0618 11.3873 65.9793 14.5348 65.8289 18.86H70.513C70.8998 16.8045 72.8121 15.4555 75.4335 15.4555C78.6136 15.4555 80.397 16.9329 80.397 19.6522V21.4936L73.908 21.8791C67.8702 22.2431 64.6042 24.7054 64.6042 28.9877C64.6042 33.3129 67.9776 36.1821 72.8121 36.1821ZM74.2088 32.2209C71.437 32.2209 69.6751 30.8934 69.6751 28.8593C69.6751 26.7609 71.3725 25.5405 74.617 25.3478L80.397 24.9838V26.868C80.397 29.9941 77.7326 32.2209 74.2088 32.2209ZM91.828 45.0037C96.8989 45.0037 99.2839 43.0767 101.368 37.2313L110.5 11.7085H105.214L99.0906 31.4287H98.9831L92.8594 11.7085H87.4232L96.2328 36.0108L95.7601 37.4882C94.9651 39.9934 93.6759 40.9569 91.3768 40.9569C90.9685 40.9569 90.1735 40.9141 89.8512 40.8713V44.8752C90.152 44.9609 91.4412 45.0037 91.828 45.0037Z" fill="black"/>
</svg>
