<svg width="34" height="38" viewBox="0 0 34 38" fill="none" xmlns="http://www.w3.org/2000/svg">
<path d="M2 9.00004H5.33333M5.33333 9.00004H32M5.33333 9.00004V32.3334C5.33333 33.2174 5.68452 34.0653 6.30964 34.6904C6.93477 35.3155 7.78261 35.6667 8.66667 35.6667H25.3333C26.2174 35.6667 27.0652 35.3155 27.6904 34.6904C28.3155 34.0653 28.6667 33.2174 28.6667 32.3334V9.00004M10.3333 9.00004V5.66671C10.3333 4.78265 10.6845 3.93481 11.3096 3.30968C11.9348 2.68456 12.7826 2.33337 13.6667 2.33337H20.3333C21.2174 2.33337 22.0652 2.68456 22.6904 3.30968C23.3155 3.93481 23.6667 4.78265 23.6667 5.66671V9.00004M13.6667 17.3334V27.3334M20.3333 17.3334V27.3334" stroke="#1E1E1E" stroke-width="3" stroke-linecap="round" stroke-linejoin="round"/>
</svg>
