<svg width="25" height="16" viewBox="0 0 25 16" fill="none" xmlns="http://www.w3.org/2000/svg">
<path d="M5.625 3.24998V0.083313H24.875V3.24998H5.625ZM5.625 9.58331V6.41665H24.875V9.58331H5.625ZM5.625 15.9166V12.75H24.875V15.9166H5.625ZM1.5 3.24998C1.11042 3.24998 0.783854 3.09824 0.520312 2.79477C0.256771 2.4913 0.125 2.11526 0.125 1.66665C0.125 1.21804 0.256771 0.841993 0.520312 0.538521C0.783854 0.235049 1.11042 0.083313 1.5 0.083313C1.88958 0.083313 2.21615 0.235049 2.47969 0.538521C2.74323 0.841993 2.875 1.21804 2.875 1.66665C2.875 2.11526 2.74323 2.4913 2.47969 2.79477C2.21615 3.09824 1.88958 3.24998 1.5 3.24998ZM1.5 9.58331C1.11042 9.58331 0.783854 9.43158 0.520312 9.1281C0.256771 8.82463 0.125 8.44859 0.125 7.99998C0.125 7.55137 0.256771 7.17533 0.520312 6.87185C0.783854 6.56838 1.11042 6.41665 1.5 6.41665C1.88958 6.41665 2.21615 6.56838 2.47969 6.87185C2.74323 7.17533 2.875 7.55137 2.875 7.99998C2.875 8.44859 2.74323 8.82463 2.47969 9.1281C2.21615 9.43158 1.88958 9.58331 1.5 9.58331ZM1.5 15.9166C1.11042 15.9166 0.783854 15.7649 0.520312 15.4614C0.256771 15.158 0.125 14.7819 0.125 14.3333C0.125 13.8847 0.256771 13.5087 0.520312 13.2052C0.783854 12.9017 1.11042 12.75 1.5 12.75C1.88958 12.75 2.21615 12.9017 2.47969 13.2052C2.74323 13.5087 2.875 13.8847 2.875 14.3333C2.875 14.7819 2.74323 15.158 2.47969 15.4614C2.21615 15.7649 1.88958 15.9166 1.5 15.9166Z" fill="#FEF7FF"/>
</svg>
