<svg width="107" height="107" viewBox="0 0 107 107" fill="none" xmlns="http://www.w3.org/2000/svg">
<path fill-rule="evenodd" clip-rule="evenodd" d="M98.0833 13.375C100.446 13.375 102.716 14.3157 104.387 15.9876C106.059 17.6595 107 19.9288 107 22.2917V84.7083C107 87.0713 106.059 89.3405 104.387 91.0124C102.716 92.6843 100.446 93.625 98.0833 93.625H8.91667C6.55375 93.625 4.28446 92.6843 2.61258 91.0124C0.940708 89.3405 0 87.0713 0 84.7083V22.2917C0 19.9288 0.940708 17.6595 2.61258 15.9876C4.28446 14.3157 6.55375 13.375 8.91667 13.375H98.0833ZM102.542 49.0417H4.45833V84.7083C4.45833 87.1693 6.45567 89.1667 8.91667 89.1667H98.0833C100.544 89.1667 102.542 87.1693 102.542 84.7083V49.0417ZM35.6667 71.3333V75.7917H13.375V71.3333H35.6667ZM93.625 62.4167V66.875H80.25V62.4167H93.625ZM49.0417 62.4167V66.875H13.375V62.4167H49.0417ZM4.45833 35.6667V44.5833H102.542V35.6667H4.45833ZM102.542 31.2083V22.2917C102.542 19.8307 100.544 17.8333 98.0833 17.8333H8.91667C6.45567 17.8333 4.45833 19.8307 4.45833 22.2917V31.2083H102.542Z" fill="#515199"/>
</svg>
