<svg width="40" height="35" viewBox="0 0 40 35" fill="none" xmlns="http://www.w3.org/2000/svg">
<path d="M35.47 4.06752C34.5762 3.17328 33.5149 2.4639 32.3469 1.97992C31.1788 1.49593 29.9269 1.24683 28.6625 1.24683C27.3982 1.24683 26.1462 1.49593 24.9782 1.97992C23.8101 2.4639 22.7488 3.17328 21.855 4.06752L20 5.92252L18.145 4.06752C16.3396 2.26206 13.8908 1.24776 11.3375 1.24776C8.78422 1.24776 6.33549 2.26206 4.53002 4.06752C2.72456 5.87298 1.71027 8.32171 1.71027 10.875C1.71027 13.4283 2.72456 15.8771 4.53002 17.6825L20 33.1525L35.47 17.6825C36.3643 16.7887 37.0736 15.7274 37.5576 14.5594C38.0416 13.3913 38.2907 12.1394 38.2907 10.875C38.2907 9.61067 38.0416 8.3587 37.5576 7.19065C37.0736 6.0226 36.3643 4.96134 35.47 4.06752Z" stroke="#1E1E1E" stroke-width="2" stroke-linecap="round" stroke-linejoin="round"/>
</svg>
