<?xml version="1.0" encoding="UTF-8"?>
<svg xmlns="http://www.w3.org/2000/svg" xmlns:xlink="http://www.w3.org/1999/xlink" width="48px" height="48px" viewBox="0 0 48 48" version="1.1">
<g id="surface1">
<path style=" stroke:none;fill-rule:nonzero;fill:rgb(0%,0%,0%);fill-opacity:1;" d="M 36.75 1.390625 C 37.777344 1.347656 38.78125 1.582031 39.695312 2.039062 C 39.757812 2.066406 39.816406 2.097656 39.875 2.128906 C 40.757812 2.59375 41.46875 3.28125 42.171875 3.984375 C 42.253906 4.066406 42.339844 4.152344 42.425781 4.238281 C 42.605469 4.414062 42.78125 4.589844 42.960938 4.769531 C 43.183594 4.992188 43.410156 5.21875 43.636719 5.441406 C 43.855469 5.65625 44.074219 5.875 44.292969 6.09375 C 44.371094 6.171875 44.453125 6.25 44.535156 6.332031 C 45.203125 7.003906 45.75 7.75 46.109375 8.636719 C 46.144531 8.722656 46.179688 8.808594 46.214844 8.894531 C 46.78125 10.59375 46.625 12.433594 45.835938 14.03125 C 45.59375 14.453125 45.328125 14.800781 44.996094 15.15625 C 44.929688 15.226562 44.929688 15.226562 44.859375 15.300781 C 44.371094 15.828125 43.867188 16.335938 43.359375 16.847656 C 43.253906 16.953125 43.148438 17.058594 43.046875 17.164062 C 42.761719 17.449219 42.476562 17.734375 42.191406 18.019531 C 41.945312 18.265625 41.703125 18.511719 41.457031 18.757812 C 39.140625 21.09375 36.816406 23.421875 34.492188 25.75 C 34.191406 26.054688 33.890625 26.355469 33.585938 26.660156 C 33.511719 26.734375 33.4375 26.808594 33.359375 26.886719 C 32.144531 28.105469 30.929688 29.328125 29.714844 30.550781 C 28.46875 31.804688 27.21875 33.0625 25.964844 34.3125 C 25.261719 35.015625 24.5625 35.71875 23.863281 36.425781 C 23.269531 37.027344 22.671875 37.625 22.074219 38.222656 C 21.769531 38.527344 21.464844 38.832031 21.160156 39.136719 C 20.882812 39.421875 20.605469 39.699219 20.324219 39.976562 C 20.222656 40.078125 20.125 40.179688 20.023438 40.28125 C 19.332031 40.992188 18.652344 41.371094 17.710938 41.664062 C 17.410156 41.757812 17.113281 41.863281 16.8125 41.96875 C 16.691406 42.007812 16.566406 42.050781 16.445312 42.09375 C 16.382812 42.113281 16.320312 42.132812 16.253906 42.15625 C 16.15625 42.1875 16.15625 42.1875 16.058594 42.222656 C 15.917969 42.269531 15.777344 42.316406 15.640625 42.363281 C 15.1875 42.515625 14.734375 42.667969 14.28125 42.820312 C 14.121094 42.871094 13.964844 42.925781 13.808594 42.976562 C 13.152344 43.195312 12.5 43.417969 11.847656 43.636719 C 10.914062 43.945312 9.980469 44.257812 9.050781 44.574219 C 8.390625 44.796875 7.734375 45.015625 7.074219 45.238281 C 6.679688 45.367188 6.289062 45.5 5.898438 45.632812 C 5.527344 45.757812 5.160156 45.878906 4.792969 46 C 4.65625 46.046875 4.523438 46.089844 4.390625 46.136719 C 2.710938 46.710938 2.710938 46.710938 1.929688 46.351562 C 1.628906 46.070312 1.519531 45.863281 1.40625 45.46875 C 1.441406 44.792969 1.65625 44.183594 1.871094 43.546875 C 1.910156 43.429688 1.949219 43.316406 1.988281 43.195312 C 2.09375 42.878906 2.203125 42.5625 2.308594 42.246094 C 2.421875 41.910156 2.53125 41.574219 2.644531 41.242188 C 2.859375 40.601562 3.070312 39.964844 3.285156 39.328125 C 3.523438 38.613281 3.761719 37.902344 4.003906 37.1875 C 4.296875 36.3125 4.589844 35.4375 4.882812 34.5625 C 4.902344 34.5 4.921875 34.4375 4.945312 34.375 C 5.046875 34.070312 5.148438 33.761719 5.253906 33.457031 C 5.449219 32.875 5.644531 32.292969 5.832031 31.707031 C 5.925781 31.421875 6.019531 31.136719 6.113281 30.851562 C 6.15625 30.714844 6.199219 30.578125 6.246094 30.445312 C 6.304688 30.253906 6.367188 30.066406 6.429688 29.875 C 6.464844 29.769531 6.5 29.660156 6.535156 29.550781 C 6.75 29.019531 7.078125 28.617188 7.480469 28.214844 C 7.542969 28.148438 7.542969 28.148438 7.613281 28.082031 C 7.757812 27.933594 7.90625 27.789062 8.050781 27.640625 C 8.15625 27.535156 8.265625 27.429688 8.371094 27.320312 C 8.664062 27.027344 8.953125 26.738281 9.246094 26.445312 C 9.5625 26.128906 9.878906 25.8125 10.191406 25.496094 C 10.808594 24.878906 11.425781 24.261719 12.046875 23.640625 C 12.546875 23.140625 13.050781 22.636719 13.550781 22.132812 C 14.976562 20.707031 16.398438 19.285156 17.824219 17.859375 C 17.902344 17.78125 17.980469 17.707031 18.058594 17.625 C 18.136719 17.550781 18.210938 17.472656 18.289062 17.394531 C 19.535156 16.148438 20.78125 14.902344 22.027344 13.652344 C 23.304688 12.371094 24.582031 11.09375 25.863281 9.8125 C 26.582031 9.09375 27.300781 8.375 28.015625 7.65625 C 28.628906 7.042969 29.238281 6.433594 29.851562 5.820312 C 30.164062 5.511719 30.476562 5.199219 30.785156 4.886719 C 31.070312 4.597656 31.359375 4.3125 31.644531 4.027344 C 31.746094 3.925781 31.851562 3.820312 31.953125 3.71875 C 33.328125 2.332031 34.804688 1.550781 36.75 1.390625 Z M 33.09375 6.28125 C 33.222656 6.546875 33.332031 6.746094 33.5625 6.9375 C 33.625 6.9375 33.6875 6.9375 33.75 6.9375 C 33.75 7 33.75 7.0625 33.75 7.125 C 33.90625 7.25 34.0625 7.375 34.21875 7.5 C 34.25 7.5625 34.28125 7.625 34.3125 7.6875 C 34.375 7.6875 34.4375 7.6875 34.5 7.6875 C 34.5 7.75 34.5 7.8125 34.5 7.875 C 34.65625 8 34.8125 8.125 34.96875 8.25 C 35.09375 8.40625 35.21875 8.5625 35.34375 8.71875 C 35.5 8.84375 35.65625 8.96875 35.8125 9.09375 C 35.875 9.1875 35.9375 9.28125 36 9.375 C 36.0625 9.375 36.125 9.375 36.1875 9.375 C 36.21875 9.46875 36.25 9.5625 36.28125 9.65625 C 36.34375 9.65625 36.40625 9.65625 36.46875 9.65625 C 36.46875 9.71875 36.46875 9.78125 36.46875 9.84375 C 36.53125 9.84375 36.59375 9.84375 36.65625 9.84375 C 36.65625 9.90625 36.65625 9.96875 36.65625 10.03125 C 36.875 10.28125 36.875 10.28125 37.125 10.5 C 37.1875 10.5 37.25 10.5 37.3125 10.5 C 37.34375 10.59375 37.375 10.6875 37.40625 10.78125 C 37.5625 10.90625 37.71875 11.03125 37.875 11.15625 C 37.96875 11.296875 37.96875 11.296875 38.0625 11.4375 C 38.125 11.4375 38.1875 11.4375 38.25 11.4375 C 38.25 11.5 38.25 11.5625 38.25 11.625 C 38.3125 11.625 38.375 11.625 38.4375 11.625 C 38.4375 11.6875 38.4375 11.75 38.4375 11.8125 C 38.65625 12.0625 38.65625 12.0625 38.90625 12.28125 C 38.96875 12.28125 39.03125 12.28125 39.09375 12.28125 C 39.125 12.375 39.15625 12.46875 39.1875 12.5625 C 39.34375 12.6875 39.5 12.8125 39.65625 12.9375 C 39.78125 13.09375 39.90625 13.25 40.03125 13.40625 C 40.109375 13.46875 40.1875 13.53125 40.265625 13.59375 C 40.5 13.78125 40.5 13.78125 40.703125 14.039062 C 40.761719 14.109375 40.816406 14.179688 40.875 14.25 C 40.9375 14.25 41 14.25 41.0625 14.25 C 41.0625 14.3125 41.0625 14.375 41.0625 14.4375 C 41.214844 14.566406 41.371094 14.691406 41.53125 14.8125 C 41.957031 14.621094 42.230469 14.332031 42.554688 14.003906 C 42.613281 13.949219 42.671875 13.894531 42.730469 13.835938 C 43.535156 13.03125 43.964844 12.160156 44.003906 11.007812 C 43.957031 9.628906 43.207031 8.648438 42.253906 7.710938 C 42.132812 7.585938 42.132812 7.585938 42.003906 7.457031 C 41.785156 7.238281 41.566406 7.023438 41.347656 6.804688 C 41.214844 6.671875 41.082031 6.539062 40.949219 6.40625 C 40.691406 6.148438 40.433594 5.890625 40.175781 5.636719 C 40.097656 5.554688 40.019531 5.476562 39.9375 5.394531 C 39.0625 4.535156 38.246094 4.027344 36.996094 3.988281 C 35.289062 4.027344 34.21875 5.121094 33.09375 6.28125 Z M 30.964844 8.386719 C 30.898438 8.453125 30.835938 8.515625 30.769531 8.582031 C 30.691406 8.660156 30.617188 8.734375 30.542969 8.808594 C 30.457031 8.894531 30.375 8.976562 30.289062 9.0625 C 30.203125 9.148438 30.117188 9.234375 30.027344 9.324219 C 29.78125 9.570312 29.539062 9.8125 29.296875 10.058594 C 29.035156 10.320312 28.773438 10.582031 28.507812 10.84375 C 28.054688 11.296875 27.601562 11.753906 27.148438 12.207031 C 26.488281 12.867188 25.832031 13.523438 25.175781 14.179688 C 24.109375 15.25 23.042969 16.316406 21.976562 17.382812 C 20.941406 18.417969 19.90625 19.457031 18.871094 20.492188 C 18.808594 20.554688 18.746094 20.621094 18.679688 20.6875 C 18.359375 21.007812 18.039062 21.328125 17.71875 21.648438 C 15.0625 24.304688 12.40625 26.964844 9.75 29.625 C 10.050781 29.980469 10.351562 30.332031 10.679688 30.660156 C 10.746094 30.726562 10.8125 30.792969 10.882812 30.863281 C 10.953125 30.933594 11.027344 31.003906 11.097656 31.078125 C 11.175781 31.15625 11.253906 31.234375 11.332031 31.3125 C 11.585938 31.5625 11.835938 31.816406 12.089844 32.066406 C 12.265625 32.242188 12.441406 32.417969 12.617188 32.59375 C 13.03125 33.007812 13.445312 33.421875 13.859375 33.835938 C 14.332031 34.308594 14.804688 34.777344 15.277344 35.25 C 16.246094 36.21875 17.21875 37.1875 18.1875 38.15625 C 18.496094 38.019531 18.703125 37.851562 18.941406 37.613281 C 19.015625 37.539062 19.089844 37.464844 19.164062 37.390625 C 19.246094 37.308594 19.328125 37.226562 19.410156 37.140625 C 19.5 37.054688 19.585938 36.96875 19.675781 36.878906 C 19.917969 36.636719 20.15625 36.398438 20.398438 36.15625 C 20.65625 35.894531 20.917969 35.636719 21.175781 35.375 C 21.625 34.925781 22.078125 34.476562 22.527344 34.023438 C 23.175781 33.375 23.828125 32.722656 24.476562 32.070312 C 25.53125 31.015625 26.589844 29.960938 27.644531 28.902344 C 28.667969 27.875 29.691406 26.847656 30.71875 25.824219 C 30.8125 25.726562 30.8125 25.726562 30.910156 25.632812 C 31.226562 25.3125 31.542969 24.996094 31.859375 24.679688 C 34.492188 22.046875 37.121094 19.414062 39.75 16.78125 C 39.449219 16.425781 39.148438 16.074219 38.820312 15.746094 C 38.753906 15.679688 38.6875 15.613281 38.621094 15.542969 C 38.546875 15.472656 38.476562 15.402344 38.402344 15.328125 C 38.289062 15.210938 38.289062 15.210938 38.171875 15.09375 C 37.921875 14.84375 37.667969 14.589844 37.417969 14.339844 C 37.242188 14.164062 37.066406 13.988281 36.890625 13.8125 C 36.523438 13.445312 36.15625 13.078125 35.789062 12.710938 C 35.367188 12.285156 34.941406 11.863281 34.519531 11.4375 C 34.113281 11.027344 33.703125 10.617188 33.292969 10.210938 C 33.121094 10.035156 32.945312 9.863281 32.773438 9.6875 C 32.53125 9.445312 32.289062 9.203125 32.046875 8.960938 C 31.976562 8.890625 31.902344 8.816406 31.828125 8.742188 C 31.761719 8.675781 31.699219 8.613281 31.628906 8.542969 C 31.542969 8.457031 31.542969 8.457031 31.457031 8.371094 C 31.246094 8.195312 31.171875 8.210938 30.964844 8.386719 Z M 8.4375 32.15625 C 7.648438 34.4375 6.875 36.726562 6.109375 39.019531 C 5.972656 39.421875 5.835938 39.828125 5.703125 40.230469 C 5.570312 40.617188 5.441406 41.003906 5.3125 41.390625 C 5.261719 41.535156 5.214844 41.679688 5.164062 41.828125 C 5.097656 42.027344 5.03125 42.226562 4.964844 42.425781 C 4.925781 42.539062 4.890625 42.652344 4.851562 42.769531 C 4.753906 43.023438 4.753906 43.023438 4.875 43.21875 C 8.496094 42.011719 12.113281 40.804688 15.84375 39.5625 C 15.410156 39.054688 15.410156 39.054688 14.957031 38.570312 C 14.902344 38.511719 14.84375 38.457031 14.785156 38.394531 C 14.722656 38.335938 14.660156 38.273438 14.597656 38.210938 C 14.535156 38.144531 14.46875 38.082031 14.398438 38.011719 C 14.183594 37.796875 13.96875 37.582031 13.753906 37.367188 C 13.601562 37.214844 13.453125 37.066406 13.300781 36.914062 C 12.988281 36.601562 12.675781 36.285156 12.359375 35.972656 C 11.957031 35.570312 11.554688 35.167969 11.148438 34.761719 C 10.839844 34.453125 10.53125 34.144531 10.21875 33.832031 C 10.070312 33.683594 9.921875 33.535156 9.773438 33.386719 C 9.566406 33.179688 9.359375 32.972656 9.152344 32.765625 C 9.089844 32.703125 9.027344 32.640625 8.964844 32.578125 C 8.738281 32.292969 8.738281 32.292969 8.4375 32.15625 Z M 8.4375 32.15625 "/>
</g>
</svg>
