<svg width="82" height="82" viewBox="0 0 82 82" fill="none" xmlns="http://www.w3.org/2000/svg">
<rect width="82" height="82" rx="40" fill="#D9D9D9"/>
<path d="M16 22H24L29.36 48.78C29.5429 49.7008 30.0438 50.5279 30.7751 51.1166C31.5064 51.7053 32.4214 52.018 33.36 52H52.8C53.7386 52.018 54.6536 51.7053 55.3849 51.1166C56.1162 50.5279 56.6171 49.7008 56.8 48.78L60 32H26M34 62C34 63.1046 33.1046 64 32 64C30.8954 64 30 63.1046 30 62C30 60.8954 30.8954 60 32 60C33.1046 60 34 60.8954 34 62ZM56 62C56 63.1046 55.1046 64 54 64C52.8954 64 52 63.1046 52 62C52 60.8954 52.8954 60 54 60C55.1046 60 56 60.8954 56 62Z" stroke="#1E1E1E" stroke-width="3" stroke-linecap="round" stroke-linejoin="round"/>
</svg>
