<svg width="33" height="38" viewBox="0 0 33 38" fill="none" xmlns="http://www.w3.org/2000/svg">
<path d="M9.625 14.25V11.0833H28.875V14.25H9.625ZM9.625 20.5833V17.4166H28.875V20.5833H9.625ZM9.625 26.9166V23.75H28.875V26.9166H9.625ZM5.5 14.25C5.11042 14.25 4.78385 14.0982 4.52031 13.7948C4.25677 13.4913 4.125 13.1153 4.125 12.6666C4.125 12.218 4.25677 11.842 4.52031 11.5385C4.78385 11.235 5.11042 11.0833 5.5 11.0833C5.88958 11.0833 6.21615 11.235 6.47969 11.5385C6.74323 11.842 6.875 12.218 6.875 12.6666C6.875 13.1153 6.74323 13.4913 6.47969 13.7948C6.21615 14.0982 5.88958 14.25 5.5 14.25ZM5.5 20.5833C5.11042 20.5833 4.78385 20.4316 4.52031 20.1281C4.25677 19.8246 4.125 19.4486 4.125 19C4.125 18.5514 4.25677 18.1753 4.52031 17.8719C4.78385 17.5684 5.11042 17.4166 5.5 17.4166C5.88958 17.4166 6.21615 17.5684 6.47969 17.8719C6.74323 18.1753 6.875 18.5514 6.875 19C6.875 19.4486 6.74323 19.8246 6.47969 20.1281C6.21615 20.4316 5.88958 20.5833 5.5 20.5833ZM5.5 26.9166C5.11042 26.9166 4.78385 26.7649 4.52031 26.4614C4.25677 26.158 4.125 25.7819 4.125 25.3333C4.125 24.8847 4.25677 24.5087 4.52031 24.2052C4.78385 23.9017 5.11042 23.75 5.5 23.75C5.88958 23.75 6.21615 23.9017 6.47969 24.2052C6.74323 24.5087 6.875 24.8847 6.875 25.3333C6.875 25.7819 6.74323 26.158 6.47969 26.4614C6.21615 26.7649 5.88958 26.9166 5.5 26.9166Z" fill="#FEF7FF"/>
</svg>
